HIERARCHY
ROOT Hips
{
	OFFSET 0.00 0.00 0.00
	CHANNELS 6 Xposition Yposition Zposition Xrotation Yrotation Zrotation
	JOINT Spine
	{
		OFFSET 0.00000 6.11665 0.00000
		CHANNELS 3 Xrotation Yrotation Zrotation
		JOINT Head
		{
			OFFSET 0.00000 15.22556 0.00000
			CHANNELS 3 Xrotation Yrotation Zrotation
			End Site
			{
				OFFSET 0.00000 4.52755 0.00000
			}
		}
		JOINT LeftShoulder
		{
			OFFSET 0.00000 8.97765 0.00000
			CHANNELS 3 Xrotation Yrotation Zrotation
			JOINT LeftArm
			{
				OFFSET 7.11013 0.00000 0.00000
				CHANNELS 3 Xrotation Yrotation Zrotation
				JOINT LeftForeArm
				{
					OFFSET 10.39834 0.00000 0.00000
					CHANNELS 3 Yrotation Zrotation Xrotation
					JOINT LeftHand
					{
						OFFSET 8.88900 0.00000 0.00000
						CHANNELS 3 Xrotation Yrotation Zrotation
						JOINT LeftHandThumb1
						{
							OFFSET 0.00000 0.00000 0.00000
							CHANNELS 3 Xrotation Zrotation Yrotation
							End Site
							{
								OFFSET 0.00000 0.00000 3.93700
							}
						}
						End Site
						{
							OFFSET 3.93700 0.00000 0.00000
						}
					}
				}
			}
		}
		JOINT RightShoulder
		{
			OFFSET 0.00000 8.97765 0.00000
			CHANNELS 3 Xrotation Yrotation Zrotation
			JOINT RightArm
			{
				OFFSET -7.11013 0.00000 0.00000
				CHANNELS 3 Xrotation Yrotation Zrotation
				JOINT RightForeArm
				{
					OFFSET -10.39834 0.00000 0.00000
					CHANNELS 3 Yrotation Zrotation Xrotation
					JOINT RightHand
					{
						OFFSET -8.88900 0.00000 0.00000
						CHANNELS 3 Xrotation Yrotation Zrotation
						JOINT RightHandThumb1
						{
							OFFSET 0.00000 0.00000 0.00000
							CHANNELS 3 Xrotation Zrotation Yrotation
							End Site
							{
								OFFSET 0.00000 0.00000 3.93700
							}
						}
						End Site
						{
							OFFSET -3.93700 0.00000 0.00000
						}
					}
				}
			}
		}
	}
	JOINT LeftUpLeg
	{
		OFFSET 4.71176 0.00000 0.00000
		CHANNELS 3 Xrotation Yrotation Zrotation
		JOINT LeftLeg
		{
			OFFSET 0.00000 -15.51045 0.00000
			CHANNELS 3 Xrotation Yrotation Zrotation
			JOINT LeftFoot
			{
				OFFSET 0.00000 -14.85806 0.00000
				CHANNELS 3 Xrotation Yrotation Zrotation
				JOINT LeftToeBase
				{
					OFFSET 0.00000 -1.32744 4.95409
					CHANNELS 3 Xrotation Yrotation Zrotation
					End Site
					{
						OFFSET 0.00000 0.00000 2.95275
					}
				}
			}
		}
	}
	JOINT RightUpLeg
	{
		OFFSET -4.71176 0.00000 0.00000
		CHANNELS 3 Xrotation Yrotation Zrotation
		JOINT RightLeg
		{
			OFFSET 0.00000 -15.51045 0.00000
			CHANNELS 3 Xrotation Yrotation Zrotation
			JOINT RightFoot
			{
				OFFSET 0.00000 -14.85806 0.00000
				CHANNELS 3 Xrotation Yrotation Zrotation
				JOINT RightToeBase
				{
					OFFSET 0.00000 -1.32744 4.95409
					CHANNELS 3 Xrotation Yrotation Zrotation
					End Site
					{
						OFFSET 0.00000 0.00000 2.95275
					}
				}
			}
		}
	}
}
MOTION
Frames:	9
Frame Time: 0.008333
-7.9412 33.7208 1.4576 -10.3251 12.6458 25.2279 7.8195 -11.8389 -16.8803 16.1924 6.8381 -12.8240 10.2352 19.6976 16.6594 -11.0762 -12.9026 -85.5549 -15.0723 0.0000 15.5048 0.0339 -17.0035 0.1160 32.8623 0.0000 24.3270 -6.3067 -10.3187 -32.4908 2.5248 8.1069 84.1415 128.5846 0.0000 -14.6436 -1.4832 11.9307 7.1389 33.1476 -0.0000 -26.2537 -75.2932 -2.3136 13.5027 119.5492 -0.0000 -0.0000 30.0946 21.1472 -14.6510 10.4091 -0.0000 -0.0000 12.2321 -12.8210 -13.6001 -0.6465 0.0000 -0.0000 -13.9453 -18.4142 8.2043 20.4682 -0.0000 -0.0000
-7.9797 33.7054 1.4704 -10.3118 12.8958 25.1132 7.7105 -12.0279 -16.8145 16.2256 6.8210 -12.6578 10.2802 19.7029 16.7417 -11.0974 -12.8767 -85.4905 -15.1025 0.0000 15.4795 0.0181 -17.0304 0.0618 32.8623 0.0000 24.3270 -6.2459 -10.3751 -32.4566 2.5689 8.0426 84.0553 128.6578 0.0000 -14.7744 -1.4382 11.8237 6.9857 33.1476 -0.0000 -26.2537 -75.4026 -2.0630 14.1447 119.2610 -0.0000 -0.0000 30.0652 21.4278 -14.6098 9.5863 -0.0000 -0.0000 12.2458 -12.8266 -13.3444 -0.6425 0.0000 -0.0000 -14.0482 -18.6595 8.2547 20.7575 -0.0000 -0.0000
-8.0133 33.6895 1.4828 -10.3209 13.1570 25.0153 7.6324 -12.2081 -16.7476 16.2476 6.7842 -12.4683 10.3247 19.6921 16.8354 -11.1465 -12.8405 -85.4491 -15.1245 -0.0000 15.4307 0.0347 -17.0553 0.1184 32.8623 0.0000 24.3270 -6.2242 -10.4363 -32.4389 2.6400 7.9644 83.9379 128.7105 -0.0000 -14.8749 -1.4091 11.7716 6.8751 33.1476 -0.0000 -26.2537 -75.5163 -1.7935 14.7560 118.9664 -0.0000 -0.0000 30.0983 21.8341 -14.9630 9.0890 -0.0000 -0.0000 12.2757 -12.8492 -13.0991 -0.6240 0.0000 -0.0000 -14.1268 -18.7889 8.0293 20.8174 -0.0000 -0.0000
-8.0475 33.6726 1.4944 -10.3325 13.4506 24.9207 7.5584 -12.3798 -16.6784 16.2611 6.7185 -12.2920 10.3411 19.6580 16.9400 -11.1936 -12.7994 -85.3941 -15.1485 0.0000 15.4197 0.0144 -17.0603 0.0491 32.8623 0.0000 24.3270 -6.2079 -10.5312 -32.4308 2.7067 7.8636 83.7891 128.7497 -0.0000 -14.9958 -1.4186 11.7471 6.9351 33.1476 -0.0000 -26.2537 -75.6567 -1.4968 15.3367 118.6158 -0.0000 -0.0000 30.3897 22.4305 -15.5737 8.1143 -0.0000 -0.0000 12.3015 -12.9430 -12.8409 -0.6623 0.0000 -0.0000 -14.1446 -18.9338 7.7129 20.5547 -0.0000 -0.0000
-8.0835 33.6565 1.5080 -10.3486 13.7055 24.8287 7.5129 -12.5029 -16.6247 16.2491 6.6335 -12.1058 10.3225 19.6229 17.0699 -11.2242 -12.7807 -85.3461 -15.1847 0.0000 15.3839 -0.0069 -17.0616 -0.0234 32.8623 0.0000 24.3270 -6.1259 -10.6813 -32.4011 2.6976 7.7744 83.6296 128.7816 0.0000 -15.1975 -1.4554 11.7944 7.0857 33.1476 -0.0000 -26.2537 -75.7725 -1.1839 15.9707 118.2972 -0.0000 -0.0000 30.6672 23.1266 -16.2645 8.0202 -0.0000 -0.0000 12.3399 -12.8641 -12.5930 -0.5984 0.0000 -0.0000 -14.2664 -19.1767 7.4826 20.6135 -0.0000 -0.0000
-8.1157 33.6374 1.5173 -10.3501 14.0329 24.7365 7.4181 -12.6991 -16.5441 16.2482 6.5887 -11.9532 10.2775 19.6048 17.1870 -11.2331 -12.8076 -85.2942 -15.2017 -0.0000 15.3892 0.0099 -17.0925 0.0337 32.8623 0.0000 24.3270 -6.0948 -10.7216 -32.4125 2.8058 7.6404 83.4926 128.8480 -0.0000 -15.4184 -1.4593 11.7647 7.1218 33.1476 -0.0000 -26.2537 -75.9748 -0.8608 16.5325 117.9930 -0.0000 -0.0000 30.8173 23.8051 -16.9893 7.2449 -0.0000 -0.0000 12.3410 -12.8637 -12.3303 -0.5639 0.0000 -0.0000 -14.3788 -19.4433 7.1308 20.5166 -0.0000 -0.0000
-8.1484 33.6156 1.5311 -10.4053 14.3905 24.6006 7.3727 -12.9589 -16.3759 16.2567 6.5704 -11.8376 10.2522 19.6346 17.2670 -11.2676 -12.8120 -85.2418 -15.2493 -0.0000 15.3865 0.0246 -17.0719 0.0837 32.8623 0.0000 24.3270 -6.0251 -10.7605 -32.4390 2.8659 7.4952 83.3680 128.9235 0.0000 -15.5913 -1.4280 11.7308 6.9901 33.1476 -0.0000 -26.2537 -76.1766 -0.6079 17.0827 117.7306 -0.0000 -0.0000 30.8935 24.4090 -17.5642 7.0572 -0.0000 -0.0000 12.4055 -12.9286 -12.0088 -0.5533 0.0000 -0.0000 -14.4467 -19.6556 6.8470 20.4123 -0.0000 -0.0000
-8.1793 33.5948 1.5423 -10.4308 14.7390 24.4860 7.3069 -13.1645 -16.2424 16.2650 6.5333 -11.7096 10.2201 19.6301 17.3523 -11.3029 -12.7742 -85.1806 -15.2996 0.0000 15.3438 0.0169 -17.0394 0.0578 32.8623 0.0000 24.3270 -5.9289 -10.8379 -32.4479 2.9082 7.3066 83.2580 128.9983 -0.0000 -15.7070 -1.4356 11.6935 7.0490 33.1476 -0.0000 -26.2537 -76.3995 -0.3199 17.6343 117.4715 -0.0000 -0.0000 30.8318 25.1612 -18.5737 7.4258 -0.0000 -0.0000 12.4178 -12.9900 -11.7270 -0.4928 0.0000 -0.0000 -14.5699 -19.8301 6.6212 20.3836 -0.0000 -0.0000
-8.2046 33.5768 1.5535 -10.4769 15.1251 24.4418 7.2348 -13.3769 -16.1747 16.2877 6.5079 -11.5772 10.1860 19.6175 17.4358 -11.3475 -12.7392 -85.1130 -15.3512 -0.0000 15.2707 0.0011 -17.0703 0.0037 32.8623 0.0000 24.3270 -5.8332 -10.9414 -32.4531 2.9739 7.0981 83.1831 129.0835 0.0000 -15.8545 -1.4397 11.6745 7.0800 33.1476 -0.0000 -26.2537 -76.6129 0.0471 18.1227 117.2063 -0.0000 -0.0000 30.9413 25.8092 -19.5939 7.2529 -0.0000 -0.0000 12.4389 -13.1700 -11.5130 -0.5031 0.0000 -0.0000 -14.6522 -19.9821 6.3796 20.2698 -0.0000 -0.0000
